<?xml version="1.0" standalone="no"?>
<!DOCTYPE svg PUBLIC "-//W3C//DTD SVG 20010904//EN"
 "http://www.w3.org/TR/2001/REC-SVG-20010904/DTD/svg10.dtd">
<svg version="1.0" xmlns="http://www.w3.org/2000/svg"
 width="1024.000000pt" height="1024.000000pt" viewBox="0 0 1024.000000 1024.000000"
 preserveAspectRatio="xMidYMid meet">
<metadata>
Created by potrace 1.14, written by Peter Selinger 2001-2017
</metadata>
<g transform="translate(0.000000,1024.000000) scale(0.100000,-0.100000)"
fill="#000000" stroke="none">
<path d="M3213 9978 c9 -16 23 -38 31 -50 16 -27 229 -370 458 -738 91 -146
202 -326 248 -400 45 -74 93 -151 105 -170 78 -121 115 -181 115 -186 0 -3 5
-10 10 -17 6 -7 50 -75 97 -152 47 -77 115 -187 151 -244 36 -57 65 -110 66
-118 1 -7 -31 -28 -71 -47 -171 -78 -325 -187 -473 -336 -110 -109 -171 -184
-242 -299 l-42 -68 -180 -32 c-100 -18 -212 -39 -251 -47 -38 -7 -86 -16 -105
-19 -19 -3 -132 -23 -250 -45 -118 -21 -231 -41 -250 -45 -19 -3 -46 -8 -60
-10 -58 -12 -77 -15 -105 -20 -73 -13 -142 -25 -165 -30 -26 -5 -46 -9 -140
-25 -30 -5 -66 -11 -80 -14 -14 -2 -86 -15 -160 -30 -74 -14 -151 -28 -170
-31 -19 -3 -96 -17 -170 -30 -74 -13 -151 -27 -170 -31 -19 -3 -42 -7 -50 -9
-8 -2 -36 -7 -61 -10 -66 -10 -75 -17 -61 -52 6 -15 45 -136 87 -268 42 -132
80 -251 85 -265 5 -14 43 -133 85 -265 81 -254 151 -469 210 -650 20 -60 38
-117 40 -125 3 -14 31 -100 165 -515 28 -88 69 -214 90 -280 21 -66 59 -185
85 -265 47 -144 186 -578 272 -845 25 -77 53 -169 64 -204 18 -63 36 -99 25
-51 -9 38 -81 410 -91 469 -3 19 -8 37 -10 40 -2 4 -6 27 -10 51 -3 25 -8 53
-11 62 -6 19 -12 50 -19 93 -5 29 -10 52 -20 105 -3 14 -12 59 -20 100 -8 41
-17 86 -20 100 -3 14 -39 198 -81 410 -42 212 -78 399 -81 415 -2 17 -9 47
-14 68 -6 21 -12 50 -14 65 -3 25 -78 406 -125 642 -11 52 -21 106 -24 120 -2
14 -7 36 -10 50 -3 14 -8 36 -10 50 -3 14 -14 75 -26 135 -12 61 -24 120 -26
133 -26 137 -54 275 -59 281 -7 12 14 19 88 31 34 5 73 12 87 15 14 2 70 11
125 20 119 19 143 23 215 35 30 5 73 12 95 15 22 3 63 10 90 15 28 5 68 12 90
15 83 13 101 16 155 25 80 14 102 17 240 40 69 11 136 22 150 25 14 2 106 18
205 34 244 40 257 42 280 46 11 1 52 8 90 15 39 6 84 13 100 16 17 2 73 11
125 19 52 9 106 18 120 20 14 2 81 13 150 25 69 12 139 23 155 26 17 2 41 6
55 9 14 3 39 7 55 9 44 7 70 12 300 50 116 19 230 37 255 41 25 3 52 8 60 10
8 2 33 6 55 10 22 3 78 12 125 20 47 7 99 16 115 18 17 3 46 8 65 11 64 11 95
16 130 22 19 3 103 16 185 30 83 14 162 27 178 29 15 3 39 7 55 10 15 2 43 7
62 10 19 3 60 10 90 15 30 5 69 11 85 14 17 2 59 9 95 15 36 6 79 13 95 16 17
3 46 8 65 11 19 3 46 8 60 9 20 3 660 108 795 131 17 3 44 7 60 10 17 2 41 6
55 9 14 3 39 7 55 9 17 3 183 30 370 61 187 31 356 58 375 61 19 3 100 17 180
30 80 14 166 27 191 30 l46 5 -13 -83 c-7 -46 -16 -105 -19 -133 -3 -27 -8
-57 -10 -65 -2 -8 -6 -37 -10 -65 -6 -50 -51 -361 -59 -413 -3 -15 -10 -63
-16 -107 -14 -101 -19 -134 -25 -165 -2 -14 -7 -47 -10 -75 -3 -27 -7 -61 -10
-75 -5 -30 -10 -58 -25 -165 -6 -44 -13 -91 -15 -105 -2 -14 -16 -106 -30
-206 -14 -99 -27 -189 -29 -200 -2 -10 -7 -41 -10 -69 -4 -27 -11 -79 -17
-115 -5 -36 -12 -76 -14 -90 -9 -66 -18 -127 -20 -145 -13 -94 -25 -180 -31
-210 -2 -11 -6 -40 -9 -65 -3 -25 -8 -56 -10 -70 -12 -73 -26 -166 -31 -208
-3 -26 -7 -58 -9 -72 -2 -14 -7 -43 -10 -65 -4 -22 -8 -51 -10 -65 -2 -14 -11
-74 -20 -135 -9 -60 -18 -121 -20 -135 -2 -14 -7 -45 -10 -69 -3 -23 -7 -55
-9 -70 -3 -14 -8 -46 -11 -71 -3 -25 -15 -101 -25 -170 -10 -69 -22 -147 -25
-175 -4 -27 -8 -61 -10 -75 -3 -14 -7 -43 -10 -65 -3 -22 -8 -51 -10 -65 -3
-14 -7 -41 -10 -60 -4 -33 -30 -216 -41 -290 -3 -19 -7 -51 -10 -70 -2 -19 -6
-46 -9 -60 -3 -14 -7 -42 -10 -62 -3 -21 -7 -53 -9 -70 -5 -35 -34 -235 -41
-278 -2 -14 -9 -61 -15 -105 -6 -44 -13 -91 -15 -105 -18 -112 -25 -153 -28
-156 -3 -4 -319 -85 -382 -99 -11 -2 -137 -34 -280 -70 -143 -36 -269 -68
-280 -71 -11 -2 -74 -18 -140 -34 -66 -17 -127 -33 -135 -34 -9 -2 -72 -18
-140 -35 -69 -17 -134 -33 -145 -36 -11 -2 -216 -54 -455 -115 -383 -97 -425
-109 -352 -104 46 3 91 7 101 9 9 2 59 6 111 10 52 4 102 8 110 10 8 2 54 6
103 9 48 4 102 9 120 11 17 2 66 6 107 10 41 3 91 8 110 10 19 2 69 7 110 10
41 3 91 7 110 10 19 2 64 7 100 10 93 7 178 15 230 20 25 3 72 7 105 10 33 3
80 7 105 10 51 5 262 24 330 30 50 4 152 13 220 20 25 2 79 7 120 11 41 3 89
8 105 10 17 1 68 6 114 9 46 4 91 8 100 10 9 2 61 6 116 10 55 4 103 12 106
17 5 8 17 76 46 258 2 14 6 36 8 50 3 14 7 43 10 65 6 38 21 127 29 170 2 11
7 40 10 65 3 25 9 58 12 74 6 36 33 208 40 256 3 19 11 71 19 115 8 44 16 98
20 120 3 22 12 78 20 125 8 47 17 103 20 125 9 60 15 95 25 155 5 30 11 71 14
90 3 19 21 132 40 250 20 118 38 233 41 255 3 22 8 51 10 65 3 14 7 43 11 65
3 22 7 47 9 55 3 8 7 35 10 60 3 25 7 56 10 70 3 14 7 39 9 55 3 17 25 155 51
309 25 153 47 292 49 310 2 17 18 114 34 216 17 102 34 205 37 230 3 25 8 52
10 60 2 8 6 31 9 50 3 19 16 105 30 190 14 85 28 173 31 195 3 22 10 65 16 95
11 65 15 88 25 155 4 28 8 55 10 62 1 6 5 29 8 50 3 21 7 47 10 58 2 11 7 40
10 65 3 25 8 56 11 70 2 13 7 42 10 65 3 22 8 47 10 55 2 8 7 42 11 75 3 33 7
63 10 66 2 3 6 26 9 50 3 24 9 67 14 94 6 28 19 109 30 180 11 72 34 216 51
320 17 105 33 201 35 215 2 14 11 68 20 120 9 52 18 111 21 130 9 64 44 285
50 312 4 21 2 27 -8 23 -7 -2 -29 -6 -48 -9 -19 -3 -60 -10 -90 -16 -30 -6
-67 -13 -82 -15 -47 -8 -82 -15 -103 -19 -11 -2 -137 -25 -280 -50 -143 -26
-318 -58 -390 -71 -71 -14 -146 -27 -165 -30 -19 -3 -96 -17 -170 -31 -74 -14
-185 -34 -246 -44 -61 -11 -131 -24 -155 -29 -24 -5 -64 -12 -89 -16 -25 -4
-63 -10 -85 -15 -22 -5 -53 -11 -70 -14 -40 -7 -192 -34 -230 -41 -16 -3 -57
-10 -90 -16 -33 -6 -71 -12 -85 -15 -32 -6 -185 -33 -225 -40 -16 -3 -75 -14
-130 -24 -354 -68 -346 -67 -386 -32 -114 99 -349 227 -511 279 -48 15 -88 31
-88 34 0 4 61 114 136 245 158 277 379 667 419 739 16 28 48 83 72 123 24 41
43 75 43 77 0 2 19 36 43 77 24 40 57 98 74 128 16 30 76 136 133 235 56 99
111 196 122 215 36 64 64 115 87 153 13 20 18 37 12 37 -6 0 -11 -4 -11 -8 0
-5 -48 -69 -107 -143 -60 -75 -119 -150 -133 -168 -14 -18 -72 -92 -130 -165
-58 -73 -116 -148 -130 -166 -14 -19 -47 -62 -75 -96 -27 -34 -93 -117 -145
-184 -52 -67 -100 -127 -105 -133 -6 -7 -26 -32 -45 -57 -19 -25 -43 -54 -52
-65 -14 -17 -207 -263 -313 -399 -16 -21 -45 -57 -63 -80 -45 -56 -52 -64 -92
-116 -19 -25 -39 -50 -45 -57 -16 -20 -96 -123 -101 -131 0 -1 -52 -5 -115 -8
-63 -3 -123 -6 -133 -8 -14 -2 -51 34 -135 133 -64 75 -120 141 -126 147 -5 6
-29 33 -52 60 -23 27 -50 59 -60 70 -10 12 -40 48 -68 80 -27 32 -83 97 -124
144 -102 118 -105 122 -206 240 -49 58 -92 107 -95 110 -3 3 -30 34 -60 70
-30 36 -65 76 -77 90 -11 14 -120 140 -240 280 -120 141 -230 269 -245 285
-14 17 -58 68 -98 115 -109 128 -156 178 -137 148z"/>
<path d="M914 6033 c7 -24 37 -144 41 -163 2 -8 17 -72 34 -142 17 -71 45
-185 62 -255 17 -71 32 -135 34 -143 2 -8 31 -125 64 -260 97 -396 162 -664
166 -682 2 -9 15 -63 29 -120 92 -374 178 -726 182 -743 4 -23 20 -89 63 -262
17 -67 32 -133 35 -145 2 -13 34 -142 70 -288 78 -318 166 -679 207 -850 17
-69 46 -190 65 -270 20 -80 37 -152 39 -160 2 -8 13 -53 25 -100 12 -47 23
-92 25 -100 2 -8 24 -103 50 -210 26 -107 48 -199 50 -205 1 -5 5 -21 8 -35 4
-14 32 -128 62 -255 30 -126 59 -246 64 -265 5 -19 14 -54 20 -76 l11 -42 68
13 c37 7 84 16 104 19 21 3 57 10 80 15 24 5 61 12 83 15 22 4 63 11 90 16 28
5 61 11 75 14 14 2 36 7 50 10 14 3 39 7 55 10 17 2 68 11 115 20 47 8 137 24
200 35 63 12 126 23 140 26 14 3 66 12 115 21 109 18 157 27 430 78 11 2 40 7
65 11 25 4 54 9 65 11 55 11 747 137 795 145 30 5 66 11 80 14 14 3 39 7 55
10 17 3 53 10 80 15 28 5 66 12 85 15 19 3 49 8 65 12 17 3 40 7 52 9 12 1 34
5 50 8 46 10 71 15 223 41 80 14 165 30 190 35 25 5 59 11 75 14 17 3 156 27
310 55 154 28 294 54 310 56 17 3 37 8 45 10 8 2 33 6 55 10 22 3 211 37 420
75 209 38 397 71 419 74 21 4 41 8 45 10 3 2 28 7 55 10 28 4 79 13 115 21 36
7 86 16 111 20 25 3 52 8 60 10 8 2 31 6 50 9 95 14 414 77 419 82 3 3 -10 3
-29 0 -19 -3 -78 -9 -130 -12 -207 -13 -357 -23 -420 -29 -43 -4 -147 -12
-275 -20 -132 -9 -223 -15 -275 -20 -30 -3 -93 -7 -140 -10 -47 -3 -105 -8
-130 -10 -25 -2 -88 -7 -140 -10 -52 -3 -115 -8 -140 -10 -25 -2 -85 -7 -135
-10 -49 -4 -110 -8 -135 -10 -25 -2 -88 -7 -140 -10 -52 -4 -111 -8 -130 -10
-19 -2 -84 -6 -145 -10 -60 -4 -126 -8 -145 -10 -19 -2 -75 -7 -125 -10 -49
-3 -110 -7 -135 -9 -25 -3 -88 -7 -140 -11 -52 -3 -115 -8 -140 -10 -25 -2
-88 -6 -140 -10 -52 -3 -115 -8 -140 -10 -25 -2 -85 -7 -135 -10 -49 -3 -110
-7 -135 -10 -25 -2 -85 -7 -135 -10 -49 -3 -112 -8 -140 -10 -27 -2 -90 -7
-140 -10 -49 -4 -110 -8 -135 -10 -25 -2 -88 -6 -140 -9 -52 -3 -115 -8 -140
-11 -25 -3 -85 -7 -135 -10 -49 -3 -112 -7 -140 -10 -27 -2 -86 -7 -130 -10
-44 -3 -107 -8 -140 -10 -33 -3 -98 -7 -145 -11 -47 -3 -101 -7 -120 -9 -19
-2 -87 -6 -150 -10 -63 -4 -117 -9 -120 -10 -3 -2 -13 17 -22 43 -9 26 -85
243 -168 482 -83 239 -164 471 -180 515 -16 44 -47 134 -70 200 -23 66 -70
201 -105 300 -35 99 -88 254 -120 345 -31 91 -63 183 -72 205 -8 22 -23 65
-33 95 -23 69 -72 208 -145 415 -31 88 -65 185 -75 215 -10 30 -44 127 -75
215 -31 88 -76 216 -100 285 -57 165 -175 502 -215 615 -17 50 -38 110 -46
135 -8 25 -18 52 -21 60 -7 19 -96 273 -168 480 -30 85 -77 220 -106 300 -28
80 -55 160 -60 178 -6 17 -12 32 -15 32 -3 0 -3 -8 0 -17z"/>
<path d="M2922 5139 c-1 -162 2 -219 11 -220 7 0 174 -1 372 -2 l360 -2 3
-1062 2 -1063 250 0 c193 0 250 3 251 13 1 6 2 485 3 1062 l1 1050 366 1 c201
0 369 3 375 6 7 5 11 297 5 415 l-1 21 -999 0 -999 0 0 -219z"/>
<path d="M5265 5347 c2 -7 24 -70 49 -142 24 -71 72 -209 106 -305 34 -96 66
-186 70 -200 5 -14 34 -97 65 -185 31 -88 76 -216 100 -285 24 -69 71 -204
105 -300 34 -96 65 -186 70 -200 4 -14 31 -90 60 -170 28 -80 63 -179 77 -220
14 -41 61 -176 104 -300 44 -124 82 -231 84 -237 3 -10 72 -13 300 -13 273 0
296 1 301 18 3 9 14 40 24 67 32 89 87 246 140 400 28 83 54 157 57 165 3 8
30 85 59 170 30 85 58 164 63 175 5 11 55 153 111 315 57 162 123 351 147 420
24 69 53 152 64 185 11 33 63 182 116 330 52 149 96 275 97 282 1 7 5 16 9 19
4 4 7 11 7 15 0 4 -118 7 -263 7 l-263 0 -16 -52 c-10 -28 -30 -89 -47 -136
-84 -239 -171 -488 -241 -690 -201 -578 -232 -667 -295 -845 -37 -104 -68
-191 -70 -193 -1 -1 -17 39 -35 90 -30 87 -142 409 -325 933 -42 121 -108 310
-147 420 -38 110 -88 252 -110 315 -22 63 -42 125 -45 137 -5 21 -7 21 -268
21 -196 0 -263 -3 -260 -11z"/>
</g>
</svg>
