<?xml version="1.0" encoding="UTF-8"?>
<svg id="Layer_1" data-name="Layer 1" xmlns="http://www.w3.org/2000/svg" xmlns:xlink="http://www.w3.org/1999/xlink" viewBox="0 0 859.43 289.48">
  <defs>
    <style>
      .cls-1 {
        fill: #fff;
      }

      .cls-2 {
        fill: url(#Unbenannter_Verlauf);
      }

      .cls-3 {
        fill: #e5a209;
      }

      .cls-4 {
        fill: url(#Unbenannter_Verlauf_2);
      }
    </style>
    <linearGradient id="Unbenannter_Verlauf" data-name="Unbenannter Verlauf" x1="565.1" y1="217.05" x2="802.7" y2="217.05" gradientTransform="translate(0 290.4) scale(1 -1)" gradientUnits="userSpaceOnUse">
      <stop offset=".53" stop-color="#efaf14"/>
      <stop offset="1" stop-color="#ce8017"/>
    </linearGradient>
    <linearGradient id="Unbenannter_Verlauf_2" data-name="Unbenannter Verlauf 2" x1="571.2" y1="111.83" x2="859.43" y2="111.83" gradientTransform="translate(0 290.4) scale(1 -1)" gradientUnits="userSpaceOnUse">
      <stop offset=".53" stop-color="#efaf14"/>
      <stop offset="1" stop-color="#ce8017"/>
    </linearGradient>
  </defs>
  <g>
    <path class="cls-1" d="M56.5,181.2H19c-.9,0-1.6.1-2,.3-.5.2-.9.4-1.2.7-.7.7-1.1,1.6-1.1,2.7s.4,2.1,1.3,2.8c.3.3.7.5,1.1.6.4.1,1.1.2,1.9.2h22.9c2.9,0,5.4.4,7.4,1.3,2,.8,3.7,2,5.1,3.4s2.5,3.1,3.3,4.9c.8,1.9,1.2,3.8,1.2,5.9,0,1.9-.3,3.7-1,5.5-.7,1.7-1.6,3.3-2.8,4.7-1.4,1.6-3.2,3-5.4,3.9-2.1,1-4.7,1.5-7.8,1.5H1.5v-13.4h37.9c1.1,0,1.9-.1,2.5-.3.6-.2,1.1-.6,1.4-1,.6-.7.8-1.5.8-2.4,0-1.1-.4-2.1-1.1-2.8-.4-.4-.8-.7-1.3-.9-.5-.2-1.3-.3-2.4-.3h-21.2c-3.5,0-6.3-.4-8.4-1.3-2.1-.8-3.9-2-5.3-3.4-1.4-1.4-2.5-3.1-3.2-4.9-.8-1.8-1.2-3.8-1.2-6s.4-4.1,1.2-5.9c.8-1.9,1.9-3.5,3.3-4.9,1.4-1.4,3.1-2.6,5.2-3.4,2.1-.8,4.9-1.3,8.4-1.3h38.2v13.8h.2Z"/>
    <path class="cls-1" d="M122.1,167.4v13.8h-22.8v38.3h-14v-38.3h-22.9v-13.8h59.7Z"/>
    <path class="cls-1" d="M141.1,219.5h-14v-48.9c0-2.2,1.2-3.2,3.5-3.2h37c3.2,0,5.9.5,8,1.3,2.1.9,3.9,2.1,5.3,3.6,1.3,1.3,2.3,2.9,3,4.7.7,1.8,1.1,3.6,1.1,5.6,0,2.1-.4,4.1-1.1,6s-2,3.5-3.9,4.8c1.7,1,3,2.3,3.8,3.9s1.2,3.9,1.2,6.9v13.2c0,.7.1,1.4.2,2.2h-14.1c-.2-1.1-.2-2.3-.2-3.5v-10.4c0-1.6-.4-2.8-1.3-3.5s-2.3-1.1-4.4-1.1h-24.3v18.4h.2ZM165.8,189.2c1,0,1.8-.2,2.4-.5s1.1-.7,1.5-1.2c.7-.8,1-1.7,1-2.7,0-1.2-.4-2.2-1.2-2.9-.8-.9-2.1-1.4-3.8-1.4h-23.5c-.8,0-1.2.4-1.2,1.2v7.6h24.8v-.1Z"/>
    <path class="cls-1" d="M246.5,167.4v13.8h-39.7c-.8,0-1.2.4-1.2,1.3v5.9h40.6v10h-40.6v6.3c0,.9.4,1.4,1.2,1.4h39.6v13.3h-47.5c-4.9,0-7.3-2.4-7.3-7.2v-37.9c0-4.7,2.5-7,7.4-7h47.5v.1Z"/>
    <path class="cls-1" d="M319.1,217.2c.2.4.4.8.5,1.2.1.4.2.7.3,1.2h-15.7c-.1-.4-.2-.7-.3-1s-.2-.6-.3-.8l-2.8-6.3h-30.8l-2.7,6.2c-.1.3-.2.6-.3.9-.1.3-.2.6-.2.9h-16.1c.1-.4.2-.8.3-1.2.1-.4.3-.7.5-1.2l18.7-41.3c1.5-3.2,3.4-5.7,5.9-7.2,2.4-1.6,5.5-2.4,9.3-2.4,3.6,0,6.7.8,9.1,2.4s4.4,4,5.9,7.2l18.7,41.4ZM295.8,200l-8-18.7c-.3-.6-.6-1-1-1.2-.4-.3-.9-.4-1.4-.4s-.9.1-1.3.3c-.4.2-.7.7-1,1.3l-7.9,18.7h20.6Z"/>
    <path class="cls-1" d="M364.9,220.6c-1.9,0-3.6-.4-5.2-1.2s-2.8-2-3.6-3.6l-15.8-32.8c-.2-.4-.5-.6-1-.6-.3,0-.6.1-.8.3-.3.2-.4.6-.4,1v35.7h-13.4v-38.2c0-2.9.4-5.3,1.3-7.2.8-1.9,2-3.5,3.6-4.7,1.2-.9,2.5-1.7,4-2.3,1.5-.6,3.2-.9,5.1-.9,3.3,0,6,.9,8.1,2.7,2.1,1.8,3.8,4.1,5.1,7l11.8,25.6c.3.7.7,1,1.3,1s1.1-.3,1.3-1l11.8-25.6c1.3-2.9,3-5.2,5.1-7s4.8-2.7,8.1-2.7c1.9,0,3.5.3,5.1.9,1.5.6,2.9,1.3,4,2.3,1.5,1.2,2.7,2.8,3.6,4.7.8,1.9,1.3,4.3,1.3,7.2v38.2h-13.5v-35.7c0-.5-.1-.8-.4-1-.3-.2-.5-.3-.8-.3-.5,0-.8.2-1,.6l-15.8,32.8c-.8,1.6-2,2.9-3.6,3.6-1.7.8-3.4,1.2-5.3,1.2Z"/>
    <path class="cls-3" d="M478.1,209.4c0,2-.3,3.6-.8,5.1-.6,1.4-1.3,2.6-2.2,3.5s-2,1.6-3.2,2-2.5.7-3.8.7c-2.3,0-4.3-.3-6-1-1.7-.6-3.2-1.7-4.5-3.1l-29.3-33.1c-.4-.5-.8-.7-1.3-.7-.4,0-.7.1-.9.4-.3.3-.4.6-.4,1.1v35.3h-14.1v-41.1c0-2.2.3-4.1.9-5.6.6-1.5,1.5-2.8,2.6-3.8s2.4-1.7,3.9-2.1,3.2-.7,5-.7c2.5,0,4.7.4,6.4,1.2,1.7.8,3.4,2.1,5.1,4l26.1,30.5c.2.3.4.4.6.5.2.1.4.1.7.1.7,0,1.1-.5,1.1-1.4v-33.7h14v41.9h.1Z"/>
    <path class="cls-3" d="M542.6,167.4v13.8h-41.1c-.9,0-1.3.4-1.3,1.3v5.9h42.1v10h-42.1v6.3c0,.9.4,1.4,1.3,1.4h41.1v13.3h-49.2c-5.1,0-7.6-2.4-7.6-7.2v-37.9c0-4.7,2.6-7,7.7-7h49.1v.1Z"/>
    <path class="cls-3" d="M608.4,167.4v13.8h-23.4v38.3h-14.4v-38.3h-23.4v-13.8h61.2Z"/>
    <path class="cls-1" d="M695.3,167.4v13.8h-22.8v38.3h-14v-38.3h-22.9v-13.8h59.7Z"/>
    <path class="cls-1" d="M699.4,169.7c-.2-.4-.4-.8-.5-1.2-.1-.4-.2-.7-.3-1.2h16.5c.2.7.3,1.3.5,1.9l15.6,36c.3.6.6,1,1,1.2.4.3.8.4,1.3.4s.9-.1,1.2-.3c.4-.2.7-.7.9-1.3l15.4-36c.3-.6.5-1.2.6-1.9h16.3c-.1.4-.2.8-.3,1.2-.1.4-.3.7-.5,1.2l-18.7,41.3c-1.5,3.2-3.4,5.6-5.9,7.2-2.4,1.6-5.5,2.4-9.2,2.4-7.2,0-12.2-3.2-15.1-9.6l-18.8-41.3Z"/>
  </g>
  <g>
    <path class="cls-2" d="M802.7,115.8c-3-5.5-6.9-9.8-11.8-12.4-24.9-13.4-80.8-3.1-80.8-3.1-74.2,14-106.4,26.8-111.8,43.7-.3.9-.6,1.8-.8,2.7h-32.4c.7-4.5,1.6-8.5,2.7-12.1,4.5-15.2,28-30.7,76.8-44.8.1,0,.3-.1.4-.2,0,0,24-5.8,27.9-6.4,3.2-.5-15.6.3-27.2,3.4,2.6-9.1,8.7-22,23-29.5l-11.4-11.8c-.9.2-1.8.4-2.7.4-5.6,0-10.2-4.7-10.2-10.4s4.6-10.4,10.2-10.4,10.2,4.7,10.2,10.4c0,1-.2,1.9-.4,2.9l14.5,15c1.5-.4,3-.7,4.5-1,2.6-.5,5.1-.7,7.6-.8l31.6-36.9c-.4-1.2-.7-2.5-.7-3.8,0-5.9,4.7-10.7,10.5-10.7s10.5,4.8,10.5,10.7-4.7,10.7-10.5,10.7c-.8,0-1.6-.1-2.3-.3l-26.9,31.5c12.6,3.2,20.9,11.8,25.8,19,.1,0,.3-.1.5-.1,10.9-1,62.7-3.3,73.2,44.3Z"/>
    <path class="cls-4" d="M838.7,226.9c-27.9,58-51.8,60.7-71.3,62-19.4,1.3-149.7,0-149.7,0,0,0-35.6,4.6-46-45.5-.2-.9-.3-1.7-.5-2.6h31c10.2,27,32.4,24.4,32.4,24.4,0,0,94.4,1,108.5,0,14.1-1.1,31.5-3.1,51.7-48.7,6.8-15.4,11.4-31.6,13.6-47.1v-.1c6.8-23.1,7.4-41.1,4.5-55.4v-.1c-5.7-28.6-25.2-41.1-36.5-46.1,20.7-.3,42.8,1.5,57.3,8.8,34.1,17.2,32.8,92.4,5,150.4Z"/>
  </g>
</svg>