<?xml version="1.0" encoding="UTF-8"?>
<svg id="Layer_1" data-name="Layer 1" xmlns="http://www.w3.org/2000/svg" xmlns:xlink="http://www.w3.org/1999/xlink" viewBox="0 0 267.72 257.83">
  <defs>
    <style>
      .cls-1 {
        fill: #fff;
      }

      .cls-2 {
        fill: url(#Unbenannter_Verlauf);
      }

      .cls-3 {
        fill: url(#Unbenannter_Verlauf_2);
      }
    </style>
    <linearGradient id="Unbenannter_Verlauf" data-name="Unbenannter Verlauf" x1="185.09" y1="199.8" x2="192.55" y2="199.8" gradientTransform="translate(0 259) scale(1 -1)" gradientUnits="userSpaceOnUse">
      <stop offset=".53" stop-color="#efaf14"/>
      <stop offset="1" stop-color="#ce8017"/>
    </linearGradient>
    <linearGradient id="Unbenannter_Verlauf_2" data-name="Unbenannter Verlauf 2" x1="0" y1="130.08" x2="267.72" y2="130.08" gradientTransform="translate(0 259) scale(1 -1)" gradientUnits="userSpaceOnUse">
      <stop offset=".53" stop-color="#efaf14"/>
      <stop offset="1" stop-color="#ce8017"/>
    </linearGradient>
  </defs>
  <g>
    <path class="cls-2" d="M185.09,57.9l7.5,2.6c-4.5-1.9-7.5-2.6-7.5-2.6Z"/>
    <path class="cls-3" d="M244.29,68.3c-13.1-6.4-33.1-8.1-51.7-7.8,10.2,4.4,27.9,15.6,33,41.1v.1c2.6,12.7,2,28.8-4.1,49.3v.1c-2,13.7-6.1,28.2-12.3,41.9-18.3,40.6-34,42.4-46.7,43.4-12.8.9-98.1,0-98.1,0,0,0-25.4,3-32.2-32.1s-6.2-58.5-.5-75.9c4.9-15,34-26.5,101-39,0,0,50.5-9.2,73,2.7,4.4,2.4,8,6.2,10.7,11.1-9.5-42.4-56.3-40.4-66.2-39.5h-.5c-4.5-6.4-12-14.1-23.4-16.9l24.4-28.1c.7.2,1.4.3,2.1.3,5.3,0,9.5-4.3,9.5-9.5s-4.3-9.5-9.5-9.5-9.5,4.3-9.5,9.5c0,1.2.2,2.3.6,3.4l-28.5,32.9c-2.2.1-4.4.3-6.8.7-1.4.3-2.8.6-4.1.9l-13.1-13.3c.2-.8.4-1.7.4-2.6,0-5.1-4.1-9.3-9.2-9.3s-9.2,4.1-9.2,9.3,4.1,9.3,9.2,9.3c.8,0,1.7-.2,2.4-.4l10.3,10.5c-14.5,7.5-19.7,20.9-21.5,29-.1,0-.3.1-.4.1C29.29,92.5,8.09,106.4,3.99,119.9c-5.8,19.4-5.8,52.3,3.5,96.9,9.4,44.6,41.6,40.5,41.6,40.5,0,0,117.8,1.2,135.3,0,17.6-1.2,39.3-3.5,64.5-55.2,25.3-51.6,26.4-118.5-4.6-133.8Z"/>
  </g>
  <g>
    <path class="cls-1" d="M116.39,143.9v14.4h-23.8v39.9h-14.6v-39.9h-23.8v-14.4h62.2Z"/>
    <path class="cls-1" d="M120.69,146.3c-.2-.4-.4-.8-.5-1.2-.1-.4-.3-.8-.4-1.2h17.2c.2.7.3,1.3.6,1.9l16.2,37.5c.3.6.6,1,1,1.3s.8.4,1.3.4.9-.1,1.3-.4c.4-.2.7-.7,1-1.3l16.1-37.5c.3-.6.5-1.2.6-1.9h16.9c-.1.4-.2.8-.4,1.2-.1.4-.3.8-.5,1.2l-19.4,43c-1.6,3.4-3.6,5.9-6.1,7.5s-5.7,2.4-9.6,2.4c-7.5,0-12.7-3.3-15.7-10l-19.6-42.9Z"/>
  </g>
</svg>